<svg id="Layer_1_1_" enable-background="new 0 0 64 64" height="512" viewBox="0 0 64 64" width="512" xmlns="http://www.w3.org/2000/svg"><path d="m59 29c-1.302 0-2.402.839-2.816 2h-6.184v-2c0-.553-.447-1-1-1h-1.704c-1.354 0-2.2-.877-2.54-1.697s-.362-2.039.596-2.997l1.205-1.205c.391-.391.391-1.023 0-1.414l-4.243-4.243c-.391-.391-1.023-.391-1.414 0l-1.205 1.205c-.959.959-2.179.936-2.997.596-.82-.34-1.697-1.186-1.697-2.54v-1.705c0-.553-.447-1-1-1h-6.184c-.414-1.161-1.514-2-2.816-2h-3-1-12.001-1-3c-1.654 0-3 1.346-3 3v36c0 1.654 1.346 3 3 3h20c1.302 0 2.402-.839 2.816-2h6.184c.553 0 1-.447 1-1v-1.704c0-1.354.877-2.2 1.697-2.54.818-.339 2.038-.363 2.997.596l1.205 1.205c.391.391 1.023.391 1.414 0l4.243-4.243c.391-.391.391-1.023 0-1.414l-1.205-1.205c-.958-.958-.936-2.177-.596-2.997s1.186-1.698 2.541-1.698h1.704c.553 0 1-.447 1-1v-2h6.184c.414 1.161 1.514 2 2.816 2 1.654 0 3-1.346 3-3s-1.346-3-3-3zm-31-5.473c.966-.343 1.97-.527 3-.527 4.963 0 9 4.037 9 9s-4.037 9-9 9c-1.03 0-2.034-.184-3-.527zm-9.816-10.527c-.112.314-.184.648-.184 1 0 .552-.448 1-1 1h-4c-.552 0-1-.448-1-1 0-.352-.072-.686-.184-1zm7.816 37c0 .552-.448 1-1 1h-20c-.552 0-1-.448-1-1v-36c0-.552.448-1 1-1h3 1c.552 0 1 .448 1 1 0 1.654 1.346 3 3 3h4c1.654 0 3-1.346 3-3 0-.552.448-1 1-1h1 3c.552 0 1 .448 1 1zm22-16h-.704c-1.958 0-3.639 1.123-4.389 2.932-.749 1.809-.354 3.793 1.03 5.177l.498.498-2.829 2.829-.498-.498c-1.385-1.386-3.367-1.778-5.177-1.03-1.808.749-2.931 2.43-2.931 4.388v.704h-5v-6.431c.974.278 1.976.431 3 .431 6.065 0 11-4.935 11-11s-4.935-11-11-11c-1.024 0-2.026.153-3 .431v-6.431h5v.704c0 1.958 1.123 3.639 2.932 4.389 1.811.75 3.794.354 5.177-1.03l.498-.498 2.829 2.829-.498.498c-1.385 1.384-1.779 3.368-1.03 5.177.749 1.808 2.43 2.931 4.388 2.931h.704zm11-1c-.552 0-1-.448-1-1s.448-1 1-1 1 .448 1 1-.448 1-1 1z"/><path d="m59 13c-1.302 0-2.402.839-2.816 2h-5.184c-.314 0-.611.148-.8.4l-3 4 1.6 1.199 2.7-3.6h4.684c.414 1.161 1.514 2 2.816 2 1.654 0 3-1.346 3-3s-1.346-2.999-3-2.999zm0 4c-.552 0-1-.448-1-1s.448-1 1-1 1 .448 1 1-.448 1-1 1z"/><path d="m59 2c-1.302 0-2.402.839-2.816 2h-19.184c-.553 0-1 .447-1 1v5h2v-4h18.184c.414 1.161 1.514 2 2.816 2 1.654 0 3-1.346 3-3s-1.346-3-3-3zm0 4c-.552 0-1-.448-1-1s.448-1 1-1 1 .448 1 1-.448 1-1 1z"/><path d="m59 45c-1.302 0-2.402.839-2.816 2h-4.684l-2.7-3.6-1.6 1.2 3 4c.188.252.485.4.8.4h5.184c.414 1.161 1.514 2 2.816 2 1.654 0 3-1.346 3-3s-1.346-3-3-3zm0 4c-.552 0-1-.448-1-1s.448-1 1-1 1 .448 1 1-.448 1-1 1z"/><path d="m59 56c-1.302 0-2.402.839-2.816 2h-18.184v-4h-2v5c0 .553.447 1 1 1h19.184c.414 1.161 1.514 2 2.816 2 1.654 0 3-1.346 3-3s-1.346-3-3-3zm0 4c-.552 0-1-.448-1-1s.448-1 1-1 1 .448 1 1-.448 1-1 1z"/><path d="m23 19h-16c-.553 0-1 .447-1 1v27c0 .553.447 1 1 1h16c.553 0 1-.447 1-1v-27c0-.553-.447-1-1-1zm-1 2v2h-14v-2zm-14 25v-21h14v21z"/><path d="m10 27h2v2h-2z"/><path d="m14 27h2v2h-2z"/><path d="m16 41h4v2h-4z"/></svg>