<svg height="480pt" viewBox="0 0 480 480" width="480pt" xmlns="http://www.w3.org/2000/svg"><path d="m352 360h-136c-4.417969 0-8 3.582031-8 8s3.582031 8 8 8h104v40h-104c-4.417969 0-8 3.582031-8 8s3.582031 8 8 8h104v24c0 4.417969 3.582031 8 8 8s8-3.582031 8-8v-80h16c4.417969 0 8 3.582031 8 8v72c0 4.417969 3.582031 8 8 8s8-3.582031 8-8v-72c0-13.253906-10.746094-24-24-24zm0 0"/><path d="m72 376c4.417969 0 8-3.582031 8-8s-3.582031-8-8-8h-16v-56c0-13.253906-10.746094-24-24-24h-8c-13.253906 0-24 10.746094-24 24v152c0 4.417969 3.582031 8 8 8s8-3.582031 8-8v-152c0-4.417969 3.582031-8 8-8h8c4.417969 0 8 3.582031 8 8v152c0 4.417969 3.582031 8 8 8s8-3.582031 8-8v-24h16c4.417969 0 8-3.582031 8-8s-3.582031-8-8-8h-16v-40zm0 0"/><path d="m240 232v-80c0-13.253906-10.746094-24-24-24s-24 10.746094-24 24v72h-16.207031c5.292969-6.882812 8.175781-15.316406 8.207031-24 0-22.089844-17.910156-40-40-40s-40 17.910156-40 40c.03125 8.683594 2.910156 17.113281 8.199219 24h-16.199219v-72c0-13.253906-10.746094-24-24-24s-24 10.746094-24 24v80c.027344 22.082031 17.917969 39.972656 40 40h8v180c.007812 11.375 6.894531 21.613281 17.425781 25.90625 10.53125 4.296875 22.613281 1.792969 30.574219-6.332031 7.960938 8.125 20.042969 10.628906 30.574219 6.332031 10.53125-4.292969 17.417969-14.53125 17.425781-25.90625v-180h8c22.082031-.027344 39.972656-17.917969 40-40zm-32-80c0-4.417969 3.582031-8 8-8s8 3.582031 8 8v48h-16zm-88 48c0-13.253906 10.746094-24 24-24s24 10.746094 24 24-10.746094 24-24 24-24-10.746094-24-24zm-56-48c0-4.417969 3.582031-8 8-8s8 3.582031 8 8v48h-16zm112 280h-24v-56c0-4.417969-3.582031-8-8-8s-8 3.582031-8 8v56h-24v-96h64zm-52 32c-6.628906 0-12-5.371094-12-12v-4h24v4c0 6.628906-5.371094 12-12 12zm52-12c0 6.628906-5.371094 12-12 12s-12-5.371094-12-12v-4h24zm24-196h-16c-4.417969 0-8 3.582031-8 8v56h-64v-56c0-4.417969-3.582031-8-8-8h-16c-13.253906 0-24-10.746094-24-24v-16h16v16c0 4.417969 3.582031 8 8 8h112c4.417969 0 8-3.582031 8-8v-16h16v16c0 13.253906-10.746094 24-24 24zm0 0"/><path d="m384 144c26.507812 0 48-21.492188 48-48s-21.492188-48-48-48-48 21.492188-48 48c.03125 26.496094 21.503906 47.96875 48 48zm0-80c17.671875 0 32 14.328125 32 32s-14.328125 32-32 32-32-14.328125-32-32 14.328125-32 32-32zm0 0"/><path d="m384 32c4.417969 0 8-3.582031 8-8v-16c0-4.417969-3.582031-8-8-8s-8 3.582031-8 8v16c0 4.417969 3.582031 8 8 8zm0 0"/><path d="m376 168v16c0 4.417969 3.582031 8 8 8s8-3.582031 8-8v-16c0-4.417969-3.582031-8-8-8s-8 3.582031-8 8zm0 0"/><path d="m448 96c0 4.417969 3.582031 8 8 8h16c4.417969 0 8-3.582031 8-8s-3.582031-8-8-8h-16c-4.417969 0-8 3.582031-8 8zm0 0"/><path d="m296 104h16c4.417969 0 8-3.582031 8-8s-3.582031-8-8-8h-16c-4.417969 0-8 3.582031-8 8s3.582031 8 8 8zm0 0"/><path d="m327.433594 50.742188c3.136718 3.035156 8.128906 2.988281 11.214844-.09375 3.082031-3.085938 3.128906-8.078126.09375-11.214844l-11.308594-11.3125c-2.011719-2.082032-4.984375-2.914063-7.78125-2.183594-2.796875.734375-4.980469 2.917969-5.714844 5.714844-.730469 2.796875.101562 5.769531 2.183594 7.78125zm0 0"/><path d="m429.257812 141.257812c-3.125 3.121094-3.125 8.1875 0 11.308594l11.308594 11.3125c3.140625 3.03125 8.128906 2.988282 11.214844-.097656s3.128906-8.074219.097656-11.214844l-11.3125-11.308594c-3.121094-3.125-8.1875-3.125-11.308594 0zm0 0"/><path d="m434.910156 53.089844c2.125-.003906 4.15625-.84375 5.65625-2.347656l11.3125-11.308594c2.082032-2.011719 2.914063-4.984375 2.183594-7.78125-.734375-2.796875-2.917969-4.980469-5.714844-5.714844-2.796875-.730469-5.769531.101562-7.78125 2.183594l-11.308594 11.3125c-2.289062 2.285156-2.972656 5.726562-1.734374 8.714844 1.238281 2.988281 4.152343 4.9375 7.386718 4.941406zm0 0"/><path d="m327.433594 141.257812-11.3125 11.308594c-2.082032 2.011719-2.914063 4.984375-2.183594 7.78125.734375 2.796875 2.917969 4.980469 5.714844 5.714844 2.796875.730469 5.769531-.101562 7.78125-2.183594l11.308594-11.3125c3.035156-3.136718 2.988281-8.128906-.09375-11.214844-3.085938-3.082031-8.078126-3.128906-11.214844-.09375zm0 0"/><path d="m472 208h-176c-13.253906 0-24-10.746094-24-24v-176c0-4.417969-3.582031-8-8-8s-8 3.582031-8 8v176c.027344 22.082031 17.917969 39.972656 40 40h176c4.417969 0 8-3.582031 8-8s-3.582031-8-8-8zm0 0"/><path d="m392 296h80c4.417969 0 8-3.582031 8-8s-3.582031-8-8-8h-80c-13.253906 0-24 10.746094-24 24s10.746094 24 24 24h24v128c0 13.253906 10.746094 24 24 24s24-10.746094 24-24v-128h8c4.417969 0 8-3.582031 8-8s-3.582031-8-8-8h-80c-4.417969 0-8-3.582031-8-8s3.582031-8 8-8zm56 32v128c0 4.417969-3.582031 8-8 8s-8-3.582031-8-8v-128zm0 0"/></svg>