<svg id="Layer_3" enable-background="new 0 0 64 64" height="512" viewBox="0 0 64 64" width="512" xmlns="http://www.w3.org/2000/svg"><g fill="#979598"><path d="m14 58h4v4h-4z"/><path d="m46 58h4v4h-4z"/><path d="m12 52h40v6h-40z"/></g><path d="m12 52h37v6h-37z" fill="#c9c6ca"/><path d="m14 52v-4c0-1.105.895-2 2-2h32c1.105 0 2 .895 2 2v4z" fill="#804044"/><path d="m45 46h-29c-1.105 0-2 .895-2 2v4h33v-4c0-1.105-.895-2-2-2z" fill="#bf6065"/><path d="m48 46h-32v-10c0-1.105.895-2 2-2h28c1.105 0 2 .895 2 2z" fill="#c9c6ca"/><path d="m27 40h-6c-.552 0-1 .448-1 1v5h7z" fill="#ff8087"/><path d="m37 40h6c.552 0 1 .448 1 1v5h-7z" fill="#ff8087"/><circle cx="32" cy="33" fill="#fcc062" r="3"/><path d="m29 36h6l4-4 3 3-5 5v6h-10v-6l-5-5 3-3z" fill="#fcc062"/><path d="m2 2h60v24h-60z" fill="#979598"/><path d="m6 6h24v16h-24z" fill="#93a7bf"/><path d="m6 6h21v16h-21z" fill="#c4deff"/><circle cx="9" cy="9" fill="#fbb03b" r="3"/><path d="m34 6h24v16h-24z" fill="#93a7bf"/><path d="m34 6h21v16h-21z" fill="#c4deff"/><path d="m52 59h-40c-.552 0-1-.448-1-1v-6c0-.552.448-1 1-1h40c.552 0 1 .448 1 1v6c0 .552-.448 1-1 1zm-39-2h38v-4h-38z"/><path d="m18 63h-4c-.552 0-1-.448-1-1v-4h2v3h2v-3h2v4c0 .552-.448 1-1 1z"/><path d="m50 63h-4c-.552 0-1-.448-1-1v-4h2v3h2v-3h2v4c0 .552-.448 1-1 1z"/><path d="m51 52h-2v-4c0-.551-.449-1-1-1h-32c-.551 0-1 .449-1 1v4h-2v-4c0-1.654 1.346-3 3-3h32c1.654 0 3 1.346 3 3z"/><path d="m21 46h-2v-5c0-1.103.897-2 2-2h6v2h-6z"/><path d="m45 46h-2v-5h-6v-2h6c1.103 0 2 .897 2 2z"/><path d="m49 46h-2v-10c0-.551-.449-1-1-1h-5v-2h5c1.654 0 3 1.346 3 3z"/><path d="m17 46h-2v-10c0-1.654 1.346-3 3-3h5v2h-5c-.551 0-1 .449-1 1z"/><path d="m62 27h-60c-.552 0-1-.448-1-1v-24c0-.552.448-1 1-1h60c.552 0 1 .448 1 1v24c0 .552-.448 1-1 1zm-59-2h58v-22h-58z"/><path d="m30 23h-24c-.552 0-1-.448-1-1v-16c0-.552.448-1 1-1h24c.552 0 1 .448 1 1v16c0 .552-.448 1-1 1zm-23-2h22v-14h-22z"/><path d="m58 23h-24c-.552 0-1-.448-1-1v-16c0-.552.448-1 1-1h24c.552 0 1 .448 1 1v16c0 .552-.448 1-1 1zm-23-2h22v-14h-22z"/><path d="m9 13c-2.206 0-4-1.794-4-4s1.794-4 4-4 4 1.794 4 4-1.794 4-4 4zm0-6c-1.103 0-2 .897-2 2s.897 2 2 2 2-.897 2-2-.897-2-2-2z"/><path d="m13 12.586h2v2.828h-2z" transform="matrix(.707 -.707 .707 .707 -5.799 14)"/><path d="m15 9h2v2h-2z"/><path d="m9 15h2v2h-2z"/><path d="m36.757 13h8.485v2h-8.485z" transform="matrix(.707 -.707 .707 .707 2.109 33.092)"/><path d="m46.757 13h8.485v2h-8.485z" transform="matrix(.707 -.707 .707 .707 5.038 40.163)"/><path d="m32 37c-2.206 0-4-1.794-4-4s1.794-4 4-4 4 1.794 4 4-1.794 4-4 4zm0-6c-1.103 0-2 .897-2 2s.897 2 2 2 2-.897 2-2-.897-2-2-2z"/><path d="m38 46h-2v-6c0-.265.105-.52.293-.707l4.293-4.293-1.586-1.586-3.293 3.293c-.187.188-.442.293-.707.293h-6c-.265 0-.52-.105-.707-.293l-3.293-3.293-1.586 1.586 4.293 4.293c.188.187.293.442.293.707v6h-2v-5.586l-4.707-4.707c-.391-.391-.391-1.023 0-1.414l3-3c.391-.391 1.023-.391 1.414 0l3.707 3.707h5.172l3.707-3.707c.391-.391 1.023-.391 1.414 0l3 3c.391.391.391 1.023 0 1.414l-4.707 4.707z"/></svg>