<svg id="Layer_3" enable-background="new 0 0 64 64" height="512" viewBox="0 0 64 64" width="512" xmlns="http://www.w3.org/2000/svg"><path d="m2 20h60v42h-60z" fill="#979598"/><path d="m2 20h57v42h-57z" fill="#c9c6ca"/><path d="m50 28v-2c0-1.105.895-2 2-2 1.105 0 2 .895 2 2v2z" fill="#72553b"/><path d="m10 28v-2c0-1.105.895-2 2-2 1.105 0 2 .895 2 2v2z" fill="#72553b"/><path d="m56 48h-48v-18c0-1.105.895-2 2-2h44c1.105 0 2 .895 2 2z" fill="#aa8058"/><path d="m51 28h-41c-1.105 0-2 .895-2 2v18h45v-18c0-1.105-.895-2-2-2z" fill="#e3aa75"/><path d="m12 48v-4c0-1.105.895-2 2-2h36c1.105 0 2 .895 2 2v4z" fill="#603033"/><path d="m47 42h-33c-1.105 0-2 .895-2 2v4h37v-4c0-1.105-.895-2-2-2z" fill="#8f484c"/><path d="m17 42v-6c0-1.105.895-2 2-2h9c1.105 0 2 .895 2 2v6z" fill="#bf6065"/><path d="m25 34h-6c-1.105 0-2 .895-2 2v6h10v-6c0-1.105-.895-2-2-2z" fill="#ff8087"/><path d="m34 42v-6c0-1.105.895-2 2-2h9c1.105 0 2 .895 2 2v6z" fill="#bf6065"/><path d="m42 34h-6c-1.105 0-2 .895-2 2v6h10v-6c0-1.105-.895-2-2-2z" fill="#ff8087"/><path d="m6 48h52v8h-52z" fill="#aa8058"/><path d="m6 48h49v8h-49z" fill="#e3aa75"/><path d="m50 56h6v6h-6z" fill="#806042"/><path d="m8 56h6v6h-6z" fill="#806042"/><path d="m2 20 30-18 30 18z" fill="#979598"/><path d="m2 20h56l-28-16.8z" fill="#c9c6ca"/><path d="m57 48h-2v-18c0-.551-.449-1-1-1h-44c-.551 0-1 .449-1 1v18h-2v-18c0-1.654 1.346-3 3-3h44c1.654 0 3 1.346 3 3z"/><path d="m58 57h-52c-.552 0-1-.448-1-1v-8c0-.552.448-1 1-1h52c.552 0 1 .448 1 1v8c0 .552-.448 1-1 1zm-51-2h50v-6h-50z"/><path d="m53 48h-2v-4c0-.551-.449-1-1-1h-36c-.551 0-1 .449-1 1v4h-2v-4c0-1.654 1.346-3 3-3h36c1.654 0 3 1.346 3 3z"/><path d="m31 42h-2v-6c0-.551-.449-1-1-1h-9c-.551 0-1 .449-1 1v6h-2v-6c0-1.654 1.346-3 3-3h9c1.654 0 3 1.346 3 3z"/><path d="m48 42h-2v-6c0-.551-.449-1-1-1h-9c-.551 0-1 .449-1 1v6h-2v-6c0-1.654 1.346-3 3-3h9c1.654 0 3 1.346 3 3z"/><path d="m13 56h2v6h-2z"/><path d="m7 56h2v6h-2z"/><path d="m55 56h2v6h-2z"/><path d="m49 56h2v6h-2z"/><path d="m15 28h-2v-2c0-.551-.449-1-1-1s-1 .449-1 1v2h-2v-2c0-1.654 1.346-3 3-3s3 1.346 3 3z"/><path d="m55 28h-2v-2c0-.551-.449-1-1-1s-1 .449-1 1v2h-2v-2c0-1.654 1.346-3 3-3s3 1.346 3 3z"/><path d="m62 63h-60c-.552 0-1-.448-1-1v-42c0-.552.448-1 1-1h60c.552 0 1 .448 1 1v42c0 .552-.448 1-1 1zm-59-2h58v-40h-58z"/><path d="m61.485 20.857-29.485-17.691-29.485 17.691-1.029-1.715 30-18c.317-.19.712-.19 1.029 0l30 18z"/><path d="m6 51h52v2h-52z"/></svg>