<svg id="Layer_3" enable-background="new 0 0 64 64" height="512" viewBox="0 0 64 64" width="512" xmlns="http://www.w3.org/2000/svg"><path d="m62.506 19.157.009-.015-30-18c-.317-.19-.712-.19-1.029 0l-30 18 .009.015c-.291.175-.495.479-.495.843v42c0 .552.448 1 1 1h60c.552 0 1-.448 1-1v-42c0-.364-.204-.668-.494-.843zm-30.506-15.991 26.39 15.834h-52.78zm-19 23.834h-2v-1c0-.551.449-1 1-1s1 .449 1 1zm-3 2h44c.551 0 1 .449 1 1v17h-2v-3c0-1.654-1.346-3-3-3h-2v-5c0-1.654-1.346-3-3-3h-9c-1.654 0-3 1.346-3 3v5h-2v-5c0-1.654-1.346-3-3-3h-9c-1.654 0-3 1.346-3 3v5h-2c-1.654 0-3 1.346-3 3v3h-2v-17c0-.551.449-1 1-1zm43-2h-2v-1c0-.551.449-1 1-1s1 .449 1 1zm-24 14h-11v-5c0-.551.449-1 1-1h9c.551 0 1 .449 1 1zm21 2c.551 0 1 .449 1 1v3h-38v-3c0-.551.449-1 1-1zm-4-2h-11v-5c0-.551.449-1 1-1h9c.551 0 1 .449 1 1zm11 8v2h-50v-2zm0 4v2h-50v-2zm-8 4v4h-34v-4zm2 0h4v4h-4zm-38 0v4h-4v-4zm48 4h-4v-4h1c.552 0 1-.448 1-1v-8c0-.552-.448-1-1-1h-1v-17c0-1.302-.839-2.402-2-2.816v-1.184c0-1.654-1.346-3-3-3s-3 1.346-3 3v1h-34v-1c0-1.654-1.346-3-3-3s-3 1.346-3 3v1.184c-1.161.414-2 1.514-2 2.816v17h-1c-.552 0-1 .448-1 1v8c0 .552.448 1 1 1h1v4h-4v-40h58z"/></svg>