<svg id="Layer_3" enable-background="new 0 0 64 64" height="512" viewBox="0 0 64 64" width="512" xmlns="http://www.w3.org/2000/svg"><path d="m36 40.673v-23.673c0-7.168-5.832-13-13-13h-6c-7.168 0-13 5.832-13 13v23.673c-.245.193-.483.396-.707.62-1.479 1.478-2.293 3.443-2.293 5.535v15.172c0 .553.448 1 1 1h36c.552 0 1-.447 1-1v-15.172c0-2.092-.814-4.058-2.293-5.535-.224-.224-.462-.427-.707-.62zm-30-23.673c0-6.065 4.935-11 11-11h6c6.065 0 11 4.935 11 11v22.532c-.891-.345-1.845-.532-2.829-.532h-6.171v-2.764c4.091-1.605 7-5.583 7-10.236v-8c0-.553-.448-1-1-1h-8.586l-2.707-2.707c-.391-.391-1.023-.391-1.414 0l-2.707 2.707h-6.586c-.552 0-1 .447-1 1v8c0 4.653 2.909 8.631 7 10.236v2.764h-6.171c-.984 0-1.938.187-2.829.532zm17 22.586-3 3-3-3v-2.777c.65.12 1.316.191 2 .191h2c.684 0 1.35-.071 2-.191zm-2-4.586h-2c-4.962 0-9-4.037-9-9v-7h6c.265 0 .52-.105.707-.293l2.293-2.293 2.293 2.293c.187.188.442.293.707.293h8v7c0 4.963-4.038 9-9 9zm-18 11.828c0-1.557.606-3.021 1.707-4.121 1.101-1.101 2.565-1.707 4.122-1.707h6.757l3.414 3.414v16.586h-10v-11h-2v11h-4zm34 14.172h-4v-11h-2v11h-10v-16.586l3.414-3.414h6.757c1.557 0 3.021.606 4.122 1.707s1.707 2.564 1.707 4.121z"/><path d="m14 21h2v4h-2z"/><path d="m24 21h2v4h-2z"/><path d="m22 30c0 .552-.449 1-1 1h-2c-.551 0-1-.448-1-1v-1h-2v1c0 1.654 1.346 3 3 3h2c1.654 0 3-1.346 3-3v-1h-2z"/><path d="m23 57h2v2h-2z"/><path d="m23 53h2v2h-2z"/><path d="m23 49h2v2h-2z"/><path d="m58 1h-13c-1.103 0-2 .897-2 2v2c0 1.103.897 2 2 2h10v2h-10v2h10v2h-10v2h10v2h-10v2h10v2h-10v2h10v2h-10v2h10v2h-10c-1.103 0-2 .897-2 2v2c0 1.103.897 2 2 2h10v25c0 1.654 1.346 3 3 3h2c1.654 0 3-1.346 3-3v-54c0-2.757-2.243-5-5-5zm3 59c0 .552-.449 1-1 1h-2c-.551 0-1-.448-1-1v-26c0-.553-.448-1-1-1h-11v-2h11c.552 0 1-.447 1-1v-24c0-.553-.448-1-1-1h-11v-2h13c1.654 0 3 1.346 3 3z"/></svg>